<!DOCTYPE svg PUBLIC "-//W3C//DTD SVG 1.1//EN" "http://www.w3.org/Graphics/SVG/1.1/DTD/svg11.dtd">

<!-- Uploaded to: SVG Repo, www.svgrepo.com, Transformed by: SVG Repo Mixer Tools -->
<svg
  fill="currentColor"
  version="1.1"
  id="Capa_1"
  xmlns="http://www.w3.org/2000/svg"
  xmlns:xlink="http://www.w3.org/1999/xlink"
  width="800px"
  height="800px"
  viewBox="-37.55 -37.55 544.50 544.50"
  xml:space="preserve"
>
  <g id="SVGRepo_bgCarrier" />

  <g
    id="SVGRepo_tracerCarrier"
    stroke-linecap="round"
    stroke-linejoin="round"
    stroke="currentColor"
    stroke-width="65.71655999999999"
  >
    <g>
      <path
        d="M310.4,235.083L459.88,85.527c12.545-12.546,12.545-32.972,0-45.671L429.433,9.409c-12.547-12.546-32.971-12.546-45.67,0 L234.282,158.967L85.642,10.327c-12.546-12.546-32.972-12.546-45.67,0L9.524,40.774c-12.546,12.546-12.546,32.972,0,45.671 l148.64,148.639L9.678,383.495c-12.546,12.546-12.546,32.971,0,45.67l30.447,30.447c12.546,12.546,32.972,12.546,45.67,0 l148.487-148.41l148.792,148.793c12.547,12.546,32.973,12.546,45.67,0l30.447-30.447c12.547-12.546,12.547-32.972,0-45.671 L310.4,235.083z"
      />
    </g>
  </g>

  <g id="SVGRepo_iconCarrier">
    <g>
      <path
        d="M310.4,235.083L459.88,85.527c12.545-12.546,12.545-32.972,0-45.671L429.433,9.409c-12.547-12.546-32.971-12.546-45.67,0 L234.282,158.967L85.642,10.327c-12.546-12.546-32.972-12.546-45.67,0L9.524,40.774c-12.546,12.546-12.546,32.972,0,45.671 l148.64,148.639L9.678,383.495c-12.546,12.546-12.546,32.971,0,45.67l30.447,30.447c12.546,12.546,32.972,12.546,45.67,0 l148.487-148.41l148.792,148.793c12.547,12.546,32.973,12.546,45.67,0l30.447-30.447c12.547-12.546,12.547-32.972,0-45.671 L310.4,235.083z"
      />
    </g>
  </g>
</svg>
