<!DOCTYPE svg PUBLIC "-//W3C//DTD SVG 1.1//EN" "http://www.w3.org/Graphics/SVG/1.1/DTD/svg11.dtd">

<!-- Uploaded to: SVG Repo, www.svgrepo.com, Transformed by: SVG Repo Mixer Tools -->
<svg width="800px" height="800px" viewBox="0 0 24 24" fill="none" xmlns="http://www.w3.org/2000/svg">

<g id="SVGRepo_bgCarrier" stroke-width="0"/>

<g id="SVGRepo_tracerCarrier" stroke-linecap="round" stroke-linejoin="round"/>

<g id="SVGRepo_iconCarrier"> <path d="M9.0091 17.9034L9.09289 17.1581L8.19556 17.0572L8.26108 17.9578L9.0091 17.9034ZM14.9909 17.9034L15.7389 17.9578L15.8044 17.0572L14.9071 17.1581L14.9909 17.9034ZM14.9001 18.4772L15.6285 18.6563L14.9001 18.4772ZM14.8182 18.8106L14.0899 18.6315L14.8182 18.8106ZM12.7039 20.917L12.8784 21.6464H12.8784L12.7039 20.917ZM11.2961 20.917L11.1216 21.6464H11.1216L11.2961 20.917ZM9.18182 18.8106L8.45352 18.9896L9.18182 18.8106ZM9.09985 18.4772L9.82816 18.2981H9.82816L9.09985 18.4772ZM6.0278 8.63259L6.7517 8.82873L6.0278 8.63259ZM10.1584 4.30223L10.3896 5.01568L10.1584 4.30223ZM5.4375 10.8112L4.7136 10.6151L4.70896 10.6322L4.70514 10.6495L5.4375 10.8112ZM4.9702 12.9275L5.70255 13.0892V13.0892L4.9702 12.9275ZM6.28759 17.4572L6.43731 16.7223L6.28759 17.4572ZM6.65518 17.5321L6.8049 16.7971H6.8049L6.65518 17.5321ZM17.3448 17.5321L17.1951 16.7971H17.1951L17.3448 17.5321ZM17.7124 17.4572L17.8621 18.1921L17.7124 17.4572ZM19.0298 12.9275L18.2974 13.0892V13.0892L19.0298 12.9275ZM18.5625 10.8112L19.2949 10.6495L19.2917 10.6351L19.2879 10.6209L18.5625 10.8112ZM17.9793 8.58835L17.2539 8.77868L17.9793 8.58835ZM13.9671 4.30838L14.2023 3.59621V3.59621L13.9671 4.30838ZM19.4728 14.9094L18.7318 15.0254L19.4728 14.9094ZM4.52719 14.9094L3.78622 14.7934L4.52719 14.9094ZM12.75 3C12.75 2.58579 12.4142 2.25 12 2.25C11.5858 2.25 11.25 2.58579 11.25 3H12.75ZM11.25 4.00474C11.25 4.41895 11.5858 4.75474 12 4.75474C12.4142 4.75474 12.75 4.41895 12.75 4.00474H11.25ZM8.92531 18.6487C10.9687 18.8784 13.0313 18.8784 15.0747 18.6487L14.9071 17.1581C12.9751 17.3753 11.0249 17.3753 9.09289 17.1581L8.92531 18.6487ZM15.6285 18.6563C15.6849 18.4268 15.7218 18.1932 15.7389 17.9578L14.2429 17.849C14.2319 18.0003 14.2081 18.1506 14.1718 18.2981L15.6285 18.6563ZM15.5465 18.9896L15.6285 18.6563L14.1718 18.2981L14.0899 18.6315L15.5465 18.9896ZM12.8784 21.6464C14.1945 21.3315 15.223 20.3052 15.5465 18.9896L14.0899 18.6315C13.8997 19.4047 13.2965 20.004 12.5294 20.1875L12.8784 21.6464ZM11.1216 21.6464C11.6991 21.7845 12.3009 21.7845 12.8784 21.6464L12.5294 20.1875C12.1813 20.2708 11.8187 20.2708 11.4706 20.1875L11.1216 21.6464ZM8.45352 18.9896C8.77701 20.3052 9.80549 21.3315 11.1216 21.6464L11.4706 20.1875C10.7035 20.004 10.1003 19.4047 9.91013 18.6315L8.45352 18.9896ZM8.37155 18.6563L8.45352 18.9896L9.91013 18.6315L9.82816 18.2981L8.37155 18.6563ZM8.26108 17.9578C8.2782 18.1932 8.31512 18.4268 8.37155 18.6563L9.82816 18.2981C9.79188 18.1506 9.76814 18.0003 9.75712 17.849L8.26108 17.9578ZM6.7517 8.82873C7.23925 7.02931 8.62052 5.58915 10.3896 5.01568L9.92711 3.58877C7.67951 4.31734 5.92499 6.14416 5.3039 8.43645L6.7517 8.82873ZM6.1614 11.0073L6.7517 8.82873L5.3039 8.43645L4.7136 10.6151L6.1614 11.0073ZM5.70255 13.0892L6.16986 10.9729L4.70514 10.6495L4.23784 12.7658L5.70255 13.0892ZM5.25 15.2604C5.25 15.1799 5.25626 15.1015 5.26817 15.0254L3.78622 14.7934C3.76233 14.946 3.75 15.102 3.75 15.2604H5.25ZM6.43731 16.7223C5.74893 16.582 5.25 15.9725 5.25 15.2604H3.75C3.75 16.6807 4.74616 17.9085 6.13787 18.1921L6.43731 16.7223ZM6.8049 16.7971L6.43731 16.7223L6.13787 18.1921L6.50547 18.267L6.8049 16.7971ZM17.1951 16.7971C13.7666 17.4956 10.2334 17.4956 6.8049 16.7971L6.50547 18.267C10.1316 19.0057 13.8684 19.0057 17.4945 18.267L17.1951 16.7971ZM17.5627 16.7223L17.1951 16.7971L17.4945 18.267L17.8621 18.1921L17.5627 16.7223ZM18.75 15.2604C18.75 15.9725 18.2511 16.582 17.5627 16.7223L17.8621 18.1921C19.2538 17.9085 20.25 16.6807 20.25 15.2604H18.75ZM18.7318 15.0254C18.7437 15.1015 18.75 15.1799 18.75 15.2604H20.25C20.25 15.102 20.2377 14.946 20.2138 14.7934L18.7318 15.0254ZM17.8301 10.9729L18.2974 13.0892L19.7622 12.7658L19.2949 10.6495L17.8301 10.9729ZM17.2539 8.77868L17.8371 11.0015L19.2879 10.6209L18.7047 8.39802L17.2539 8.77868ZM13.7319 5.02054C15.4622 5.592 16.7887 7.00574 17.2539 8.77868L18.7047 8.39802C18.1113 6.13594 16.4174 4.32779 14.2023 3.59621L13.7319 5.02054ZM10.3896 5.01568C11.474 4.66418 12.6528 4.66417 13.7319 5.02054L14.2023 3.59621C12.8171 3.13872 11.3114 3.14004 9.92711 3.58877L10.3896 5.01568ZM20.2138 14.7934C20.1066 14.1089 19.8899 13.3445 19.7622 12.7658L18.2974 13.0892C18.4575 13.8142 18.6325 14.3907 18.7318 15.0254L20.2138 14.7934ZM4.23784 12.7658C4.11006 13.3445 3.89335 14.1089 3.78622 14.7934L5.26817 15.0254C5.36752 14.3907 5.54246 13.8142 5.70255 13.0892L4.23784 12.7658ZM11.25 3V4.00474H12.75V3H11.25Z" fill="currentColor"/> </g>

</svg>