<!DOCTYPE svg PUBLIC "-//W3C//DTD SVG 1.1//EN" "http://www.w3.org/Graphics/SVG/1.1/DTD/svg11.dtd">

<!-- Uploaded to: SVG Repo, www.svgrepo.com, Transformed by: SVG Repo Mixer Tools -->
<svg width="800px" height="800px" viewBox="0 0 24 24" fill="none" xmlns="http://www.w3.org/2000/svg">

<g id="SVGRepo_bgCarrier" stroke-width="0"/>

<g id="SVGRepo_tracerCarrier" >

<path clip-rule="evenodd" d="M15.5162 16.236C15.8424 15.9807 16.3137 16.0382 16.569 16.3644L20.6177 21.5377C20.873 21.8639 20.8155 22.3353 20.4893 22.5906C20.1631 22.8459 19.6918 22.7884 19.4365 22.4622L15.3878 17.2888C15.1325 16.9626 15.19 16.4913 15.5162 16.236Z" fill="currentColor" fill-rule="evenodd"/>

<path clip-rule="evenodd" d="M20.4472 10.7236C20.4472 15.5415 16.5415 19.4472 11.7236 19.4472C6.90568 19.4472 3 15.5415 3 10.7236C3 5.90568 6.90568 2 11.7236 2C16.5415 2 20.4472 5.90568 20.4472 10.7236ZM7.97363 12.7236C7.97363 12.3094 8.30942 11.9736 8.72363 11.9736H14.7236C15.1378 11.9736 15.4736 12.3094 15.4736 12.7236C15.4736 13.1378 15.1378 13.4736 14.7236 13.4736H8.72363C8.30942 13.4736 7.97363 13.1378 7.97363 12.7236ZM10.7236 7.97363C10.3094 7.97363 9.97363 8.30942 9.97363 8.72363C9.97363 9.13785 10.3094 9.47363 10.7236 9.47363H14.7236C15.1378 9.47363 15.4736 9.13785 15.4736 8.72363C15.4736 8.30942 15.1378 7.97363 14.7236 7.97363H10.7236Z" fill="currentColor" fill-rule="evenodd"/>

</g>

<g id="SVGRepo_iconCarrier">

<path clip-rule="evenodd" d="M15.5162 16.236C15.8424 15.9807 16.3137 16.0382 16.569 16.3644L20.6177 21.5377C20.873 21.8639 20.8155 22.3353 20.4893 22.5906C20.1631 22.8459 19.6918 22.7884 19.4365 22.4622L15.3878 17.2888C15.1325 16.9626 15.19 16.4913 15.5162 16.236Z" fill="currentColor" fill-rule="evenodd"/>

<path clip-rule="evenodd" d="M20.4472 10.7236C20.4472 15.5415 16.5415 19.4472 11.7236 19.4472C6.90568 19.4472 3 15.5415 3 10.7236C3 5.90568 6.90568 2 11.7236 2C16.5415 2 20.4472 5.90568 20.4472 10.7236ZM7.97363 12.7236C7.97363 12.3094 8.30942 11.9736 8.72363 11.9736H14.7236C15.1378 11.9736 15.4736 12.3094 15.4736 12.7236C15.4736 13.1378 15.1378 13.4736 14.7236 13.4736H8.72363C8.30942 13.4736 7.97363 13.1378 7.97363 12.7236ZM10.7236 7.97363C10.3094 7.97363 9.97363 8.30942 9.97363 8.72363C9.97363 9.13785 10.3094 9.47363 10.7236 9.47363H14.7236C15.1378 9.47363 15.4736 9.13785 15.4736 8.72363C15.4736 8.30942 15.1378 7.97363 14.7236 7.97363H10.7236Z" fill="currentColor" fill-rule="evenodd"/>

</g>

</svg>